<svg width="197" height="214" viewBox="0 0 197 214" fill="none" xmlns="http://www.w3.org/2000/svg">
<g clip-path="url(#clip0_1_81)">
<path d="M24.9715 99.6255H37.9184V115.702H35.1038V102.057H27.7861V115.702H24.9715V99.6255ZM40.5456 104.061H42.9773V105.637H43.0224C43.3826 104.962 43.8855 104.482 44.531 104.196C45.1764 103.896 45.8744 103.746 46.625 103.746C47.5406 103.746 48.3362 103.911 49.0117 104.241C49.7022 104.557 50.2726 104.999 50.7229 105.57C51.1733 106.125 51.511 106.778 51.7362 107.529C51.9613 108.279 52.0739 109.082 52.0739 109.938C52.0739 110.719 51.9688 111.477 51.7587 112.212C51.5635 112.948 51.2558 113.601 50.8355 114.171C50.4302 114.726 49.9123 115.177 49.2819 115.522C48.6514 115.852 47.9084 116.017 47.0528 116.017C46.6775 116.017 46.3022 115.98 45.927 115.905C45.5517 115.845 45.1914 115.74 44.8462 115.59C44.5009 115.439 44.1782 115.252 43.878 115.027C43.5928 114.786 43.3526 114.509 43.1575 114.194H43.1124V120.003H40.5456V104.061ZM49.5071 109.893C49.5071 109.368 49.4395 108.857 49.3044 108.362C49.1693 107.866 48.9667 107.431 48.6965 107.056C48.4263 106.666 48.0885 106.358 47.6832 106.133C47.2779 105.893 46.8126 105.772 46.2872 105.772C45.2064 105.772 44.3883 106.148 43.8329 106.898C43.2926 107.649 43.0224 108.647 43.0224 109.893C43.0224 110.478 43.0899 111.026 43.225 111.537C43.3751 112.032 43.5928 112.46 43.878 112.82C44.1632 113.18 44.5009 113.466 44.8912 113.676C45.2965 113.886 45.7618 113.991 46.2872 113.991C46.8726 113.991 47.368 113.871 47.7733 113.631C48.1786 113.39 48.5088 113.083 48.764 112.707C49.0342 112.317 49.2218 111.882 49.3269 111.402C49.447 110.906 49.5071 110.403 49.5071 109.893ZM59.1289 116.017C58.1982 116.017 57.3651 115.867 56.6296 115.567C55.9091 115.252 55.2936 114.824 54.7832 114.284C54.2879 113.743 53.9051 113.098 53.6349 112.347C53.3797 111.597 53.2521 110.771 53.2521 109.87C53.2521 108.985 53.3797 108.167 53.6349 107.416C53.9051 106.666 54.2879 106.02 54.7832 105.48C55.2936 104.939 55.9091 104.519 56.6296 104.219C57.3651 103.904 58.1982 103.746 59.1289 103.746C60.0596 103.746 60.8852 103.904 61.6057 104.219C62.3412 104.519 62.9567 104.939 63.452 105.48C63.9624 106.02 64.3452 106.666 64.6003 107.416C64.8705 108.167 65.0056 108.985 65.0056 109.87C65.0056 110.771 64.8705 111.597 64.6003 112.347C64.3452 113.098 63.9624 113.743 63.452 114.284C62.9567 114.824 62.3412 115.252 61.6057 115.567C60.8852 115.867 60.0596 116.017 59.1289 116.017ZM59.1289 113.991C59.6993 113.991 60.1947 113.871 60.615 113.631C61.0353 113.39 61.3805 113.075 61.6507 112.685C61.9209 112.295 62.1161 111.859 62.2361 111.379C62.3712 110.884 62.4388 110.381 62.4388 109.87C62.4388 109.375 62.3712 108.88 62.2361 108.384C62.1161 107.889 61.9209 107.454 61.6507 107.078C61.3805 106.688 61.0353 106.373 60.615 106.133C60.1947 105.893 59.6993 105.772 59.1289 105.772C58.5585 105.772 58.0631 105.893 57.6428 106.133C57.2225 106.373 56.8773 106.688 56.6071 107.078C56.3369 107.454 56.1342 107.889 55.9991 108.384C55.879 108.88 55.819 109.375 55.819 109.87C55.819 110.381 55.879 110.884 55.9991 111.379C56.1342 111.859 56.3369 112.295 56.6071 112.685C56.8773 113.075 57.2225 113.39 57.6428 113.631C58.0631 113.871 58.5585 113.991 59.1289 113.991ZM74.5474 107.957C74.4424 107.236 74.1497 106.696 73.6693 106.335C73.204 105.96 72.611 105.772 71.8905 105.772C71.5603 105.772 71.2075 105.833 70.8323 105.953C70.457 106.058 70.1117 106.268 69.7965 106.583C69.4813 106.883 69.2186 107.311 69.0084 107.866C68.7983 108.407 68.6932 109.12 68.6932 110.006C68.6932 110.486 68.7457 110.966 68.8508 111.447C68.9709 111.927 69.151 112.355 69.3912 112.73C69.6464 113.105 69.9691 113.413 70.3594 113.653C70.7497 113.878 71.2225 113.991 71.7779 113.991C72.5285 113.991 73.1439 113.758 73.6243 113.293C74.1196 112.828 74.4274 112.175 74.5474 111.334H77.1143C76.8741 112.85 76.2962 114.013 75.3805 114.824C74.4799 115.62 73.279 116.017 71.7779 116.017C70.8623 116.017 70.0517 115.867 69.3462 115.567C68.6557 115.252 68.0703 114.832 67.5899 114.306C67.1096 113.766 66.7418 113.128 66.4866 112.392C66.2464 111.657 66.1264 110.861 66.1264 110.006C66.1264 109.135 66.2464 108.317 66.4866 107.551C66.7268 106.786 67.087 106.125 67.5674 105.57C68.0477 104.999 68.6407 104.557 69.3462 104.241C70.0667 103.911 70.9073 103.746 71.868 103.746C72.5435 103.746 73.1815 103.836 73.7819 104.016C74.3973 104.181 74.9377 104.437 75.4031 104.782C75.8834 105.127 76.2737 105.562 76.5739 106.088C76.8741 106.613 77.0543 107.236 77.1143 107.957H74.5474ZM88.0046 105.975H84.1543V115.702H81.5875V105.975H77.5796V104.061H88.0046V105.975ZM89.208 104.061H91.6398V105.637H91.6848C92.0451 104.962 92.5479 104.482 93.1934 104.196C93.8388 103.896 94.5369 103.746 95.2874 103.746C96.2031 103.746 96.9986 103.911 97.6741 104.241C98.3646 104.557 98.935 104.999 99.3854 105.57C99.8357 106.125 100.173 106.778 100.399 107.529C100.624 108.279 100.736 109.082 100.736 109.938C100.736 110.719 100.631 111.477 100.421 112.212C100.226 112.948 99.9182 113.601 99.4979 114.171C99.0926 114.726 98.5748 115.177 97.9443 115.522C97.3139 115.852 96.5708 116.017 95.7152 116.017C95.3399 116.017 94.9647 115.98 94.5894 115.905C94.2141 115.845 93.8539 115.74 93.5086 115.59C93.1634 115.439 92.8406 115.252 92.5404 115.027C92.2552 114.786 92.015 114.509 91.8199 114.194H91.7749V120.003H89.208V104.061ZM98.1695 109.893C98.1695 109.368 98.1019 108.857 97.9668 108.362C97.8317 107.866 97.6291 107.431 97.3589 107.056C97.0887 106.666 96.751 106.358 96.3457 106.133C95.9404 105.893 95.475 105.772 94.9497 105.772C93.8689 105.772 93.0508 106.148 92.4954 106.898C91.955 107.649 91.6848 108.647 91.6848 109.893C91.6848 110.478 91.7523 111.026 91.8874 111.537C92.0375 112.032 92.2552 112.46 92.5404 112.82C92.8256 113.18 93.1634 113.466 93.5536 113.676C93.9589 113.886 94.4243 113.991 94.9497 113.991C95.5351 113.991 96.0304 113.871 96.4357 113.631C96.841 113.39 97.1713 113.083 97.4264 112.707C97.6966 112.317 97.8843 111.882 97.9894 111.402C98.1094 110.906 98.1695 110.403 98.1695 109.893ZM112.205 113.113C112.205 113.428 112.242 113.653 112.317 113.788C112.407 113.923 112.572 113.991 112.812 113.991H113.083C113.188 113.991 113.308 113.976 113.443 113.946V115.725C113.353 115.755 113.233 115.785 113.083 115.815C112.948 115.86 112.805 115.897 112.655 115.927C112.505 115.957 112.355 115.98 112.205 115.995C112.054 116.01 111.927 116.017 111.822 116.017C111.296 116.017 110.861 115.912 110.516 115.702C110.171 115.492 109.945 115.124 109.84 114.599C109.33 115.094 108.699 115.454 107.949 115.68C107.213 115.905 106.5 116.017 105.81 116.017C105.285 116.017 104.782 115.942 104.301 115.792C103.821 115.657 103.393 115.454 103.018 115.184C102.658 114.899 102.365 114.546 102.14 114.126C101.93 113.691 101.825 113.188 101.825 112.617C101.825 111.897 101.952 111.311 102.207 110.861C102.477 110.411 102.823 110.058 103.243 109.803C103.678 109.548 104.159 109.368 104.684 109.262C105.224 109.142 105.765 109.052 106.305 108.992C106.771 108.902 107.213 108.842 107.634 108.812C108.054 108.767 108.422 108.7 108.737 108.61C109.067 108.519 109.322 108.384 109.503 108.204C109.698 108.009 109.795 107.724 109.795 107.349C109.795 107.018 109.713 106.748 109.548 106.538C109.397 106.328 109.202 106.17 108.962 106.065C108.737 105.945 108.482 105.87 108.197 105.84C107.911 105.795 107.641 105.772 107.386 105.772C106.666 105.772 106.073 105.923 105.607 106.223C105.142 106.523 104.879 106.988 104.819 107.619H102.252C102.297 106.868 102.477 106.245 102.793 105.75C103.108 105.255 103.506 104.857 103.986 104.557C104.481 104.256 105.037 104.046 105.652 103.926C106.268 103.806 106.898 103.746 107.544 103.746C108.114 103.746 108.677 103.806 109.232 103.926C109.788 104.046 110.283 104.241 110.718 104.512C111.169 104.782 111.529 105.135 111.799 105.57C112.069 105.99 112.205 106.508 112.205 107.123V113.113ZM109.638 109.87C109.247 110.126 108.767 110.283 108.197 110.343C107.626 110.388 107.056 110.463 106.485 110.568C106.215 110.613 105.952 110.681 105.697 110.771C105.442 110.846 105.217 110.959 105.022 111.109C104.827 111.244 104.669 111.432 104.549 111.672C104.444 111.897 104.391 112.175 104.391 112.505C104.391 112.79 104.474 113.03 104.639 113.225C104.804 113.42 104.999 113.578 105.224 113.698C105.465 113.803 105.72 113.878 105.99 113.923C106.275 113.968 106.53 113.991 106.756 113.991C107.041 113.991 107.349 113.953 107.679 113.878C108.009 113.803 108.317 113.676 108.602 113.496C108.902 113.315 109.15 113.09 109.345 112.82C109.54 112.535 109.638 112.19 109.638 111.784V109.87ZM114.584 104.061H117.151V108.88H122.937V104.061H125.504V115.702H122.937V110.794H117.151V115.702H114.584V104.061ZM135.689 107.957C135.584 107.236 135.291 106.696 134.811 106.335C134.345 105.96 133.752 105.772 133.032 105.772C132.702 105.772 132.349 105.833 131.974 105.953C131.598 106.058 131.253 106.268 130.938 106.583C130.623 106.883 130.36 107.311 130.15 107.866C129.94 108.407 129.835 109.12 129.835 110.006C129.835 110.486 129.887 110.966 129.992 111.447C130.112 111.927 130.292 112.355 130.533 112.73C130.788 113.105 131.111 113.413 131.501 113.653C131.891 113.878 132.364 113.991 132.919 113.991C133.67 113.991 134.285 113.758 134.766 113.293C135.261 112.828 135.569 112.175 135.689 111.334H138.256C138.016 112.85 137.438 114.013 136.522 114.824C135.621 115.62 134.42 116.017 132.919 116.017C132.004 116.017 131.193 115.867 130.488 115.567C129.797 115.252 129.212 114.832 128.731 114.306C128.251 113.766 127.883 113.128 127.628 112.392C127.388 111.657 127.268 110.861 127.268 110.006C127.268 109.135 127.388 108.317 127.628 107.551C127.868 106.786 128.228 106.125 128.709 105.57C129.189 104.999 129.782 104.557 130.488 104.241C131.208 103.911 132.049 103.746 133.009 103.746C133.685 103.746 134.323 103.836 134.923 104.016C135.539 104.181 136.079 104.437 136.544 104.782C137.025 105.127 137.415 105.562 137.715 106.088C138.016 106.613 138.196 107.236 138.256 107.957H135.689ZM149.146 105.975H145.296V115.702H142.729V105.975H138.721V104.061H149.146V105.975ZM152.916 108.812H155.663C156.159 108.812 156.564 108.692 156.879 108.452C157.209 108.197 157.374 107.844 157.374 107.394C157.374 106.868 157.224 106.5 156.924 106.29C156.639 106.08 156.219 105.975 155.663 105.975H152.916V108.812ZM150.349 104.061H156.474C157.525 104.061 158.365 104.301 158.996 104.782C159.626 105.247 159.941 105.968 159.941 106.943C159.941 107.529 159.791 108.032 159.491 108.452C159.206 108.872 158.8 109.195 158.275 109.42V109.465C158.996 109.615 159.536 109.953 159.896 110.478C160.272 111.004 160.459 111.664 160.459 112.46C160.459 112.91 160.377 113.338 160.212 113.743C160.046 114.134 159.791 114.479 159.446 114.779C159.101 115.064 158.658 115.289 158.117 115.454C157.577 115.62 156.932 115.702 156.181 115.702H150.349V104.061ZM152.916 113.788H155.956C156.586 113.788 157.067 113.646 157.397 113.36C157.727 113.06 157.892 112.647 157.892 112.122C157.892 111.597 157.727 111.199 157.397 110.929C157.067 110.643 156.586 110.501 155.956 110.501H152.916V113.788ZM167.503 116.017C166.573 116.017 165.74 115.867 165.004 115.567C164.284 115.252 163.668 114.824 163.158 114.284C162.662 113.743 162.28 113.098 162.009 112.347C161.754 111.597 161.627 110.771 161.627 109.87C161.627 108.985 161.754 108.167 162.009 107.416C162.28 106.666 162.662 106.02 163.158 105.48C163.668 104.939 164.284 104.519 165.004 104.219C165.74 103.904 166.573 103.746 167.503 103.746C168.434 103.746 169.26 103.904 169.98 104.219C170.716 104.519 171.331 104.939 171.827 105.48C172.337 106.02 172.72 106.666 172.975 107.416C173.245 108.167 173.38 108.985 173.38 109.87C173.38 110.771 173.245 111.597 172.975 112.347C172.72 113.098 172.337 113.743 171.827 114.284C171.331 114.824 170.716 115.252 169.98 115.567C169.26 115.867 168.434 116.017 167.503 116.017ZM167.503 113.991C168.074 113.991 168.569 113.871 168.99 113.631C169.41 113.39 169.755 113.075 170.025 112.685C170.295 112.295 170.491 111.859 170.611 111.379C170.746 110.884 170.813 110.381 170.813 109.87C170.813 109.375 170.746 108.88 170.611 108.384C170.491 107.889 170.295 107.454 170.025 107.078C169.755 106.688 169.41 106.373 168.99 106.133C168.569 105.893 168.074 105.772 167.503 105.772C166.933 105.772 166.438 105.893 166.017 106.133C165.597 106.373 165.252 106.688 164.982 107.078C164.711 107.454 164.509 107.889 164.374 108.384C164.254 108.88 164.194 109.375 164.194 109.87C164.194 110.381 164.254 110.884 164.374 111.379C164.509 111.859 164.711 112.295 164.982 112.685C165.252 113.075 165.597 113.39 166.017 113.631C166.438 113.871 166.933 113.991 167.503 113.991Z" fill="#E20000"/>
<rect x="0.500854" y="10.7754" width="0.649821" height="192.875" fill="#E20000"/>
</g>
<defs>
<clipPath id="clip0_1_81">
<rect width="196.5" height="212.491" fill="white" transform="translate(0.500366 0.95752)"/>
</clipPath>
</defs>
</svg>
