<svg width="197" height="213" viewBox="0 0 197 213" fill="none" xmlns="http://www.w3.org/2000/svg">
<g clip-path="url(#clip0_1_66)">
<path d="M28.2605 98.7076H31.075V110.686L37.8975 98.7076H41.2073V114.784H38.3928V102.715L31.4803 114.784H28.2605V98.7076ZM43.8345 103.143H46.4014V107.962H52.1881V103.143H54.7549V114.784H52.1881V109.876H46.4014V114.784H43.8345V103.143ZM64.9397 107.039C64.8346 106.318 64.5419 105.778 64.0616 105.417C63.5962 105.042 63.0033 104.854 62.2828 104.854C61.9525 104.854 61.5998 104.915 61.2245 105.035C60.8492 105.14 60.504 105.35 60.1887 105.665C59.8735 105.965 59.6108 106.393 59.4007 106.949C59.1905 107.489 59.0855 108.202 59.0855 109.088C59.0855 109.568 59.138 110.048 59.2431 110.529C59.3632 111.009 59.5433 111.437 59.7835 111.812C60.0386 112.187 60.3614 112.495 60.7517 112.735C61.1419 112.96 61.6148 113.073 62.1702 113.073C62.9207 113.073 63.5362 112.84 64.0165 112.375C64.5119 111.91 64.8196 111.257 64.9397 110.416H67.5065C67.2664 111.932 66.6884 113.095 65.7728 113.906C64.8721 114.702 63.6713 115.099 62.1702 115.099C61.2545 115.099 60.4439 114.949 59.7384 114.649C59.0479 114.334 58.4625 113.914 57.9822 113.388C57.5018 112.848 57.134 112.21 56.8789 111.474C56.6387 110.739 56.5186 109.943 56.5186 109.088C56.5186 108.217 56.6387 107.399 56.8789 106.633C57.119 105.868 57.4793 105.207 57.9596 104.652C58.44 104.081 59.0329 103.639 59.7384 103.323C60.4589 102.993 61.2996 102.828 62.2602 102.828C62.9357 102.828 63.5737 102.918 64.1741 103.098C64.7896 103.263 65.33 103.519 65.7953 103.864C66.2757 104.209 66.6659 104.644 66.9662 105.17C67.2664 105.695 67.4465 106.318 67.5065 107.039H64.9397ZM78.3969 105.057H74.5466V114.784H71.9797V105.057H67.9718V103.143H78.3969V105.057ZM89.2822 112.195C89.2822 112.51 89.3198 112.735 89.3948 112.87C89.4849 113.005 89.65 113.073 89.8902 113.073H90.1604C90.2655 113.073 90.3855 113.058 90.5206 113.028V114.807C90.4306 114.837 90.3105 114.867 90.1604 114.897C90.0253 114.942 89.8827 114.979 89.7326 115.009C89.5825 115.039 89.4324 115.062 89.2822 115.077C89.1321 115.092 89.0045 115.099 88.8995 115.099C88.3741 115.099 87.9388 114.994 87.5935 114.784C87.2483 114.574 87.0231 114.206 86.918 113.681C86.4077 114.176 85.7772 114.537 85.0267 114.762C84.2911 114.987 83.5781 115.099 82.8876 115.099C82.3622 115.099 81.8594 115.024 81.379 114.874C80.8987 114.739 80.4709 114.537 80.0956 114.266C79.7353 113.981 79.4426 113.628 79.2175 113.208C79.0073 112.773 78.9022 112.27 78.9022 111.699C78.9022 110.979 79.0298 110.394 79.285 109.943C79.5552 109.493 79.9005 109.14 80.3208 108.885C80.7561 108.63 81.2364 108.45 81.7618 108.345C82.3022 108.224 82.8426 108.134 83.383 108.074C83.8483 107.984 84.2911 107.924 84.7114 107.894C85.1317 107.849 85.4995 107.782 85.8147 107.692C86.145 107.601 86.4002 107.466 86.5803 107.286C86.7754 107.091 86.873 106.806 86.873 106.431C86.873 106.1 86.7904 105.83 86.6253 105.62C86.4752 105.41 86.2801 105.252 86.0399 105.147C85.8147 105.027 85.5596 104.952 85.2743 104.922C84.9891 104.877 84.7189 104.854 84.4638 104.854C83.7432 104.854 83.1503 105.005 82.685 105.305C82.2196 105.605 81.957 106.07 81.8969 106.701H79.3301C79.3751 105.95 79.5552 105.327 79.8704 104.832C80.1857 104.337 80.5835 103.939 81.0638 103.639C81.5592 103.338 82.1146 103.128 82.73 103.008C83.3455 102.888 83.9759 102.828 84.6214 102.828C85.1918 102.828 85.7547 102.888 86.3101 103.008C86.8655 103.128 87.3609 103.323 87.7962 103.594C88.2465 103.864 88.6068 104.217 88.877 104.652C89.1472 105.072 89.2822 105.59 89.2822 106.205V112.195ZM86.7154 108.952C86.3251 109.208 85.8448 109.365 85.2743 109.425C84.7039 109.47 84.1335 109.545 83.5631 109.65C83.2929 109.695 83.0302 109.763 82.775 109.853C82.5199 109.928 82.2947 110.041 82.0996 110.191C81.9044 110.326 81.7468 110.514 81.6267 110.754C81.5216 110.979 81.4691 111.257 81.4691 111.587C81.4691 111.872 81.5517 112.112 81.7168 112.307C81.8819 112.503 82.077 112.66 82.3022 112.78C82.5424 112.885 82.7976 112.96 83.0678 113.005C83.353 113.05 83.6081 113.073 83.8333 113.073C84.1185 113.073 84.4262 113.035 84.7565 112.96C85.0867 112.885 85.3944 112.758 85.6796 112.578C85.9799 112.397 86.2275 112.172 86.4227 111.902C86.6178 111.617 86.7154 111.272 86.7154 110.866V108.952ZM91.2336 112.938C91.6239 112.938 91.9916 112.803 92.3369 112.533C92.6972 112.262 92.9523 111.872 93.1024 111.362C93.1925 111.076 93.2601 110.799 93.3051 110.529C93.3651 110.243 93.4102 109.943 93.4402 109.628C93.4852 109.313 93.5152 108.96 93.5303 108.57C93.5453 108.179 93.5603 107.729 93.5753 107.219C93.5903 106.708 93.5978 106.13 93.5978 105.485C93.6128 104.824 93.6203 104.044 93.6203 103.143H103.28V114.784H100.713V105.057H96.2322C96.2322 106.033 96.2172 106.896 96.1872 107.647C96.1722 108.382 96.1421 109.035 96.0971 109.605C96.0671 110.176 96.0221 110.679 95.962 111.114C95.902 111.534 95.8194 111.91 95.7143 112.24C95.6093 112.615 95.4742 112.968 95.309 113.298C95.1589 113.613 94.9263 113.891 94.611 114.131C94.3108 114.356 93.898 114.537 93.3726 114.672C92.8623 114.807 92.1868 114.874 91.3462 114.874C91.106 114.874 90.9034 114.867 90.7382 114.852C90.5731 114.852 90.408 114.837 90.2429 114.807V112.87C90.408 112.9 90.5506 112.923 90.6707 112.938C90.8058 112.938 90.9934 112.938 91.2336 112.938ZM105.252 112.938C105.642 112.938 106.01 112.803 106.355 112.533C106.715 112.262 106.97 111.872 107.121 111.362C107.211 111.076 107.278 110.799 107.323 110.529C107.383 110.243 107.428 109.943 107.458 109.628C107.503 109.313 107.533 108.96 107.548 108.57C107.563 108.179 107.578 107.729 107.593 107.219C107.608 106.708 107.616 106.13 107.616 105.485C107.631 104.824 107.638 104.044 107.638 103.143H117.298V114.784H114.731V105.057H110.25C110.25 106.033 110.235 106.896 110.205 107.647C110.19 108.382 110.16 109.035 110.115 109.605C110.085 110.176 110.04 110.679 109.98 111.114C109.92 111.534 109.838 111.91 109.732 112.24C109.627 112.615 109.492 112.968 109.327 113.298C109.177 113.613 108.944 113.891 108.629 114.131C108.329 114.356 107.916 114.537 107.391 114.672C106.88 114.807 106.205 114.874 105.364 114.874C105.124 114.874 104.922 114.867 104.756 114.852C104.591 114.852 104.426 114.837 104.261 114.807V112.87C104.426 112.9 104.569 112.923 104.689 112.938C104.824 112.938 105.012 112.938 105.252 112.938ZM129.132 114.784H126.565V110.258H124.043L121.296 114.784H118.167L121.499 110.056C120.989 109.921 120.568 109.726 120.238 109.47C119.923 109.215 119.675 108.937 119.495 108.637C119.315 108.337 119.187 108.022 119.112 107.692C119.052 107.361 119.022 107.046 119.022 106.746C119.022 106.386 119.075 105.995 119.18 105.575C119.285 105.155 119.488 104.764 119.788 104.404C120.088 104.044 120.501 103.744 121.026 103.504C121.567 103.263 122.272 103.143 123.143 103.143H129.132V114.784ZM126.565 105.057H123.255C122.805 105.057 122.415 105.192 122.084 105.462C121.754 105.733 121.589 106.168 121.589 106.768C121.589 107.369 121.754 107.782 122.084 108.007C122.415 108.232 122.805 108.345 123.255 108.345H126.565V105.057ZM131.517 103.143H134.084V112.87H139.871V103.143H142.437V112.87H144.509V118.319H142.145V114.784H131.517V103.143ZM145.711 103.143H148.278V111.137H148.323L153.434 103.143H156.609V114.784H154.042V106.723H153.997L148.773 114.784H145.711V103.143ZM168.46 114.784H165.893V110.258H163.371L160.624 114.784H157.494L160.827 110.056C160.316 109.921 159.896 109.726 159.566 109.47C159.251 109.215 159.003 108.937 158.823 108.637C158.643 108.337 158.515 108.022 158.44 107.692C158.38 107.361 158.35 107.046 158.35 106.746C158.35 106.386 158.403 105.995 158.508 105.575C158.613 105.155 158.815 104.764 159.116 104.404C159.416 104.044 159.829 103.744 160.354 103.504C160.894 103.263 161.6 103.143 162.471 103.143H168.46V114.784ZM165.893 105.057H162.583C162.133 105.057 161.743 105.192 161.412 105.462C161.082 105.733 160.917 106.168 160.917 106.768C160.917 107.369 161.082 107.782 161.412 108.007C161.743 108.232 162.133 108.345 162.583 108.345H165.893V105.057Z" fill="#E20000"/>
<rect x="9.79944" y="211.88" width="186.691" height="0.649821" fill="#E20000"/>
<rect x="9.79944" y="0.0395508" width="186.691" height="0.649821" fill="#E20000"/>
</g>
<defs>
<clipPath id="clip0_1_66">
<rect width="196.5" height="212.491" fill="white" transform="translate(0 0.0395508)"/>
</clipPath>
</defs>
</svg>
