<svg width="195" height="629" viewBox="0 0 195 629" fill="none" xmlns="http://www.w3.org/2000/svg">
<path d="M35.8323 95.0346C35.7122 94.5692 35.5471 94.1414 35.3369 93.7511C35.1268 93.3609 34.8566 93.0231 34.5263 92.7379C34.1961 92.4527 33.8058 92.235 33.3555 92.0849C32.9202 91.9198 32.4098 91.8373 31.8244 91.8373C30.9687 91.8373 30.2257 92.0099 29.5953 92.3551C28.9798 92.7004 28.4769 93.1657 28.0867 93.7511C27.6964 94.3216 27.4037 94.9745 27.2085 95.7101C27.0284 96.4456 26.9383 97.1961 26.9383 97.9617C26.9383 98.7272 27.0284 99.4778 27.2085 100.213C27.4037 100.949 27.6964 101.609 28.0867 102.195C28.4769 102.765 28.9798 103.223 29.5953 103.568C30.2257 103.913 30.9687 104.086 31.8244 104.086C32.4548 104.086 33.0102 103.981 33.4906 103.771C33.9709 103.546 34.3837 103.246 34.729 102.87C35.0742 102.48 35.3444 102.03 35.5396 101.519C35.7347 101.009 35.8623 100.461 35.9223 99.8756H38.6693C38.6093 100.836 38.3991 101.714 38.0389 102.51C37.6936 103.306 37.2208 103.996 36.6203 104.581C36.0199 105.152 35.3144 105.595 34.5038 105.91C33.6932 106.225 32.8001 106.383 31.8244 106.383C30.6235 106.383 29.5427 106.165 28.582 105.73C27.6363 105.279 26.8333 104.672 26.1728 103.906C25.5123 103.14 25.0019 102.247 24.6417 101.227C24.2964 100.206 24.1238 99.1175 24.1238 97.9617C24.1238 96.8209 24.2964 95.7401 24.6417 94.7193C25.0019 93.6986 25.5123 92.8055 26.1728 92.0399C26.8333 91.2744 27.6363 90.6664 28.582 90.2161C29.5427 89.7658 30.6235 89.5406 31.8244 89.5406C32.725 89.5406 33.5731 89.6682 34.3687 89.9234C35.1643 90.1635 35.8623 90.5238 36.4627 91.0042C37.0782 91.4695 37.5735 92.0399 37.9488 92.7154C38.3241 93.3909 38.5567 94.1639 38.6468 95.0346H35.8323ZM39.1349 94.3591H41.9495L44.9892 103.05H45.0342L47.9838 94.3591H50.6633L46.1375 106.63C45.9274 107.156 45.7172 107.659 45.5071 108.139C45.3119 108.619 45.0642 109.04 44.764 109.4C44.4788 109.775 44.1186 110.068 43.6832 110.278C43.2479 110.503 42.6925 110.616 42.017 110.616C41.4166 110.616 40.8237 110.571 40.2382 110.481V108.319C40.4484 108.349 40.651 108.379 40.8462 108.409C41.0413 108.454 41.244 108.477 41.4541 108.477C41.7543 108.477 42.002 108.439 42.1972 108.364C42.3923 108.289 42.5499 108.177 42.67 108.026C42.8051 107.891 42.9177 107.726 43.0077 107.531C43.0978 107.336 43.1804 107.111 43.2554 106.856L43.5481 105.955L39.1349 94.3591ZM56.9803 106.315C55.104 106.315 53.6554 105.692 52.6347 104.446C51.614 103.2 51.1036 101.392 51.1036 99.02C51.1036 98.4796 51.1261 97.9242 51.1711 97.3537C51.2312 96.7833 51.3137 96.2279 51.4188 95.6875C51.5389 95.1472 51.689 94.6293 51.8691 94.1339C52.0643 93.6235 52.3045 93.1657 52.5897 92.7604C53.13 91.9498 53.7905 91.3569 54.5711 90.9816C55.3667 90.5914 56.3574 90.3662 57.5432 90.3062C58.0386 90.2911 58.4364 90.2686 58.7366 90.2386C59.0368 90.2086 59.2695 90.1711 59.4346 90.126C59.6147 90.066 59.7423 89.9909 59.8174 89.9009C59.8924 89.8108 59.945 89.6907 59.975 89.5406H62.3842C62.3542 90.126 62.2642 90.6139 62.114 91.0042C61.9789 91.3794 61.7538 91.6872 61.4386 91.9273C61.1383 92.1525 60.7406 92.3251 60.2452 92.4452C59.7498 92.5503 59.1419 92.6253 58.4214 92.6704C57.5207 92.7304 56.7627 92.858 56.1472 93.0531C55.5318 93.2483 55.0289 93.5035 54.6386 93.8187C54.2484 94.1339 53.9481 94.5092 53.738 94.9445C53.5278 95.3798 53.3852 95.8527 53.3102 96.363H53.3552C53.7755 95.7326 54.3459 95.2372 55.0664 94.877C55.787 94.5017 56.6651 94.314 57.7009 94.314C58.4514 94.314 59.1419 94.4567 59.7724 94.7419C60.4028 95.0121 60.9432 95.4023 61.3935 95.9127C61.8589 96.4231 62.2191 97.0385 62.4743 97.759C62.7295 98.4796 62.8571 99.2826 62.8571 100.168C62.8571 101.069 62.722 101.895 62.4518 102.645C62.1966 103.396 61.8138 104.041 61.3035 104.581C60.8081 105.122 60.1927 105.55 59.4571 105.865C58.7366 106.165 57.911 106.315 56.9803 106.315ZM56.9803 104.289C57.5507 104.289 58.0461 104.169 58.4664 103.929C58.8867 103.688 59.232 103.373 59.5022 102.983C59.7724 102.593 59.9675 102.157 60.0876 101.677C60.2227 101.182 60.2902 100.679 60.2902 100.168C60.2902 99.6729 60.2227 99.1926 60.0876 98.7272C59.9675 98.2619 59.7724 97.8566 59.5022 97.5114C59.232 97.1511 58.8867 96.8659 58.4664 96.6557C58.0461 96.4456 57.5507 96.3405 56.9803 96.3405C56.4099 96.3405 55.9146 96.4456 55.4943 96.6557C55.074 96.8659 54.7287 97.1511 54.4585 97.5114C54.1883 97.8566 53.9857 98.2619 53.8506 98.7272C53.7305 99.1926 53.6704 99.6729 53.6704 100.168C53.6704 100.679 53.7305 101.182 53.8506 101.677C53.9857 102.157 54.1883 102.593 54.4585 102.983C54.7287 103.373 55.074 103.688 55.4943 103.929C55.9146 104.169 56.4099 104.289 56.9803 104.289ZM64.1804 104.154C64.5707 104.154 64.9385 104.019 65.2837 103.748C65.644 103.478 65.8992 103.088 66.0493 102.578C66.1394 102.292 66.2069 102.015 66.2519 101.744C66.312 101.459 66.357 101.159 66.387 100.844C66.4321 100.529 66.4621 100.176 66.4771 99.7855C66.4921 99.3952 66.5071 98.9449 66.5221 98.4345C66.5371 97.9242 66.5446 97.3462 66.5446 96.7008C66.5597 96.0403 66.5672 95.2597 66.5672 94.3591H76.2267V106H73.6598V96.273H69.1791C69.1791 97.2487 69.164 98.1118 69.134 98.8623C69.119 99.5979 69.089 100.251 69.044 100.821C69.0139 101.392 68.9689 101.895 68.9089 102.33C68.8488 102.75 68.7663 103.125 68.6612 103.456C68.5561 103.831 68.421 104.184 68.2559 104.514C68.1058 104.829 67.8731 105.107 67.5579 105.347C67.2577 105.572 66.8449 105.752 66.3195 105.887C65.8091 106.023 65.1336 106.09 64.293 106.09C64.0528 106.09 63.8502 106.083 63.6851 106.068C63.52 106.068 63.3548 106.053 63.1897 106.023V104.086C63.3548 104.116 63.4974 104.139 63.6175 104.154C63.7526 104.154 63.9403 104.154 64.1804 104.154ZM78.6264 94.3591H81.1933V102.352H81.2383L86.3495 94.3591H89.5243V106H86.9574V97.9392H86.9124L81.6886 106H78.6264V94.3591ZM91.9409 94.3591H96.1514L98.313 102.668H98.358L100.43 94.3591H104.618V106H102.028V97.2412H102.006L99.619 106H96.9395L94.5528 97.2412H94.5078V106H91.9409V94.3591ZM116.696 103.411C116.696 103.726 116.734 103.951 116.809 104.086C116.899 104.221 117.064 104.289 117.304 104.289H117.575C117.68 104.289 117.8 104.274 117.935 104.244V106.023C117.845 106.053 117.725 106.083 117.575 106.113C117.44 106.158 117.297 106.195 117.147 106.225C116.997 106.255 116.847 106.278 116.696 106.293C116.546 106.308 116.419 106.315 116.314 106.315C115.788 106.315 115.353 106.21 115.008 106C114.663 105.79 114.437 105.422 114.332 104.897C113.822 105.392 113.191 105.752 112.441 105.977C111.705 106.203 110.992 106.315 110.302 106.315C109.776 106.315 109.274 106.24 108.793 106.09C108.313 105.955 107.885 105.752 107.51 105.482C107.15 105.197 106.857 104.844 106.632 104.424C106.422 103.989 106.316 103.486 106.316 102.915C106.316 102.195 106.444 101.609 106.699 101.159C106.969 100.709 107.315 100.356 107.735 100.101C108.17 99.8455 108.651 99.6654 109.176 99.5603C109.716 99.4403 110.257 99.3502 110.797 99.2901C111.263 99.2001 111.705 99.14 112.126 99.11C112.546 99.065 112.914 98.9974 113.229 98.9074C113.559 98.8173 113.814 98.6822 113.995 98.5021C114.19 98.3069 114.287 98.0217 114.287 97.6465C114.287 97.3162 114.205 97.046 114.04 96.8359C113.889 96.6257 113.694 96.4681 113.454 96.363C113.229 96.2429 112.974 96.1679 112.689 96.1379C112.403 96.0928 112.133 96.0703 111.878 96.0703C111.157 96.0703 110.565 96.2204 110.099 96.5206C109.634 96.8209 109.371 97.2862 109.311 97.9167H106.744C106.789 97.1661 106.969 96.5432 107.285 96.0478C107.6 95.5524 107.998 95.1547 108.478 94.8544C108.973 94.5542 109.529 94.3441 110.144 94.224C110.76 94.1039 111.39 94.0439 112.036 94.0439C112.606 94.0439 113.169 94.1039 113.724 94.224C114.28 94.3441 114.775 94.5392 115.21 94.8094C115.661 95.0796 116.021 95.4324 116.291 95.8677C116.561 96.288 116.696 96.8059 116.696 97.4213V103.411ZM114.13 100.168C113.739 100.423 113.259 100.581 112.689 100.641C112.118 100.686 111.548 100.761 110.977 100.866C110.707 100.911 110.444 100.979 110.189 101.069C109.934 101.144 109.709 101.257 109.514 101.407C109.319 101.542 109.161 101.729 109.041 101.97C108.936 102.195 108.883 102.472 108.883 102.803C108.883 103.088 108.966 103.328 109.131 103.523C109.296 103.718 109.491 103.876 109.716 103.996C109.957 104.101 110.212 104.176 110.482 104.221C110.767 104.266 111.022 104.289 111.248 104.289C111.533 104.289 111.84 104.251 112.171 104.176C112.501 104.101 112.809 103.974 113.094 103.793C113.394 103.613 113.642 103.388 113.837 103.118C114.032 102.833 114.13 102.487 114.13 102.082V100.168ZM119.076 94.3591H121.643V104.086H127.429V94.3591H129.996V104.086H132.068V109.535H129.703V106H119.076V94.3591ZM133.27 94.3591H135.837V102.352H135.882L140.993 94.3591H144.168V106H141.601V97.9392H141.556L136.332 106H133.27V94.3591ZM156.019 106H153.452V101.474H150.93L148.183 106H145.053L148.386 101.272C147.875 101.136 147.455 100.941 147.125 100.686C146.809 100.431 146.562 100.153 146.382 99.8531C146.201 99.5528 146.074 99.2376 145.999 98.9074C145.939 98.5771 145.909 98.2619 145.909 97.9617C145.909 97.6014 145.961 97.2111 146.066 96.7908C146.171 96.3705 146.374 95.9803 146.674 95.62C146.975 95.2597 147.387 94.9595 147.913 94.7193C148.453 94.4792 149.159 94.3591 150.029 94.3591H156.019V106ZM153.452 96.273H150.142C149.691 96.273 149.301 96.4081 148.971 96.6783C148.641 96.9485 148.476 97.3838 148.476 97.9842C148.476 98.5846 148.641 98.9974 148.971 99.2226C149.301 99.4478 149.691 99.5603 150.142 99.5603H153.452V96.273ZM72.2343 126.086H76.9853V116.359H79.5521V128H62.3272V116.359H64.894V126.086H69.6675V116.359H72.2343V126.086ZM80.6014 116.359H83.4159L86.4556 125.05H86.5007L89.4503 116.359H92.1297L87.604 128.63C87.3938 129.156 87.1837 129.659 86.9735 130.139C86.7784 130.619 86.5307 131.04 86.2305 131.4C85.9453 131.775 85.585 132.068 85.1497 132.278C84.7144 132.503 84.159 132.616 83.4835 132.616C82.8831 132.616 82.2901 132.571 81.7047 132.481V130.319C81.9149 130.349 82.1175 130.379 82.3126 130.409C82.5078 130.454 82.7104 130.477 82.9206 130.477C83.2208 130.477 83.4685 130.439 83.6636 130.364C83.8588 130.289 84.0164 130.177 84.1365 130.026C84.2716 129.891 84.3841 129.726 84.4742 129.531C84.5643 129.336 84.6468 129.111 84.7219 128.856L85.0146 127.955L80.6014 116.359ZM93.178 116.359H97.3885L99.5501 124.668H99.5951L101.667 116.359H105.855V128H103.265V119.241H103.243L100.856 128H98.1766L95.7899 119.241H95.7448V128H93.178V116.359ZM117.934 125.411C117.934 125.726 117.971 125.951 118.046 126.086C118.136 126.221 118.301 126.289 118.542 126.289H118.812C118.917 126.289 119.037 126.274 119.172 126.244V128.023C119.082 128.053 118.962 128.083 118.812 128.113C118.677 128.158 118.534 128.195 118.384 128.225C118.234 128.255 118.084 128.278 117.934 128.293C117.783 128.308 117.656 128.315 117.551 128.315C117.025 128.315 116.59 128.21 116.245 128C115.9 127.79 115.674 127.422 115.569 126.897C115.059 127.392 114.429 127.752 113.678 127.977C112.942 128.203 112.229 128.315 111.539 128.315C111.014 128.315 110.511 128.24 110.03 128.09C109.55 127.955 109.122 127.752 108.747 127.482C108.387 127.197 108.094 126.844 107.869 126.424C107.659 125.989 107.554 125.486 107.554 124.915C107.554 124.195 107.681 123.609 107.936 123.159C108.207 122.709 108.552 122.356 108.972 122.101C109.407 121.846 109.888 121.665 110.413 121.56C110.954 121.44 111.494 121.35 112.034 121.29C112.5 121.2 112.942 121.14 113.363 121.11C113.783 121.065 114.151 120.997 114.466 120.907C114.796 120.817 115.051 120.682 115.232 120.502C115.427 120.307 115.524 120.022 115.524 119.646C115.524 119.316 115.442 119.046 115.277 118.836C115.127 118.626 114.931 118.468 114.691 118.363C114.466 118.243 114.211 118.168 113.926 118.138C113.64 118.093 113.37 118.07 113.115 118.07C112.395 118.07 111.802 118.22 111.336 118.521C110.871 118.821 110.608 119.286 110.548 119.917H107.981C108.026 119.166 108.207 118.543 108.522 118.048C108.837 117.552 109.235 117.155 109.715 116.854C110.21 116.554 110.766 116.344 111.381 116.224C111.997 116.104 112.627 116.044 113.273 116.044C113.843 116.044 114.406 116.104 114.961 116.224C115.517 116.344 116.012 116.539 116.448 116.809C116.898 117.08 117.258 117.432 117.528 117.868C117.798 118.288 117.934 118.806 117.934 119.421V125.411ZM115.367 122.168C114.976 122.423 114.496 122.581 113.926 122.641C113.355 122.686 112.785 122.761 112.214 122.866C111.944 122.911 111.682 122.979 111.426 123.069C111.171 123.144 110.946 123.257 110.751 123.407C110.556 123.542 110.398 123.729 110.278 123.97C110.173 124.195 110.12 124.472 110.12 124.803C110.12 125.088 110.203 125.328 110.368 125.523C110.533 125.718 110.728 125.876 110.954 125.996C111.194 126.101 111.449 126.176 111.719 126.221C112.004 126.266 112.259 126.289 112.485 126.289C112.77 126.289 113.078 126.251 113.408 126.176C113.738 126.101 114.046 125.974 114.331 125.793C114.631 125.613 114.879 125.388 115.074 125.118C115.269 124.833 115.367 124.487 115.367 124.082V122.168Z" fill="#E20000"/>
<rect x="193.628" width="0.649821" height="202.683" fill="#E20000"/>
<path d="M47.8452 311.586H50.6597V318.904L57.8199 311.586H61.2874L54.8703 318.004L61.7377 327.663H58.2252L52.9564 319.985L50.6597 322.259V327.663H47.8452V311.586ZM61.1652 316.022H63.9797L67.0194 324.713H67.0644L70.0141 316.022H72.6935L68.1677 328.294C67.9576 328.819 67.7474 329.322 67.5373 329.802C67.3421 330.282 67.0944 330.703 66.7942 331.063C66.509 331.438 66.1488 331.731 65.7134 331.941C65.2781 332.166 64.7227 332.279 64.0472 332.279C63.4468 332.279 62.8539 332.234 62.2684 332.144V329.982C62.4786 330.012 62.6812 330.042 62.8764 330.072C63.0715 330.117 63.2742 330.14 63.4843 330.14C63.7845 330.14 64.0322 330.102 64.2274 330.027C64.4225 329.952 64.5801 329.84 64.7002 329.69C64.8353 329.554 64.9479 329.389 65.038 329.194C65.128 328.999 65.2106 328.774 65.2856 328.519L65.5783 327.618L61.1652 316.022ZM79.0105 327.978C77.1342 327.978 75.6856 327.355 74.6649 326.109C73.6442 324.864 73.1338 323.055 73.1338 320.683C73.1338 320.143 73.1563 319.587 73.2013 319.017C73.2614 318.446 73.3439 317.891 73.449 317.351C73.5691 316.81 73.7192 316.292 73.8993 315.797C74.0945 315.287 74.3347 314.829 74.6199 314.424C75.1603 313.613 75.8207 313.02 76.6013 312.645C77.3969 312.254 78.3876 312.029 79.5734 311.969C80.0688 311.954 80.4666 311.932 80.7668 311.902C81.067 311.872 81.2997 311.834 81.4648 311.789C81.6449 311.729 81.7725 311.654 81.8476 311.564C81.9226 311.474 81.9752 311.354 82.0052 311.204H84.4144C84.3844 311.789 84.2944 312.277 84.1443 312.667C84.0092 313.043 83.784 313.35 83.4688 313.59C83.1685 313.816 82.7708 313.988 82.2754 314.108C81.78 314.213 81.1721 314.288 80.4516 314.333C79.5509 314.393 78.7929 314.521 78.1774 314.716C77.562 314.911 77.0591 315.167 76.6688 315.482C76.2786 315.797 75.9783 316.172 75.7682 316.608C75.558 317.043 75.4154 317.516 75.3404 318.026H75.3854C75.8057 317.396 76.3761 316.9 77.0967 316.54C77.8172 316.165 78.6953 315.977 79.7311 315.977C80.4816 315.977 81.1721 316.12 81.8026 316.405C82.433 316.675 82.9734 317.065 83.4237 317.576C83.8891 318.086 84.2493 318.702 84.5045 319.422C84.7597 320.143 84.8873 320.946 84.8873 321.831C84.8873 322.732 84.7522 323.558 84.482 324.308C84.2268 325.059 83.844 325.704 83.3337 326.245C82.8383 326.785 82.2229 327.213 81.4873 327.528C80.7668 327.828 79.9412 327.978 79.0105 327.978ZM79.0105 325.952C79.581 325.952 80.0763 325.832 80.4966 325.592C80.9169 325.351 81.2622 325.036 81.5324 324.646C81.8026 324.256 81.9977 323.82 82.1178 323.34C82.2529 322.845 82.3204 322.342 82.3204 321.831C82.3204 321.336 82.2529 320.856 82.1178 320.39C81.9977 319.925 81.8026 319.52 81.5324 319.174C81.2622 318.814 80.9169 318.529 80.4966 318.319C80.0763 318.109 79.581 318.004 79.0105 318.004C78.4401 318.004 77.9448 318.109 77.5245 318.319C77.1042 318.529 76.7589 318.814 76.4887 319.174C76.2185 319.52 76.0159 319.925 75.8808 320.39C75.7607 320.856 75.7006 321.336 75.7006 321.831C75.7006 322.342 75.7607 322.845 75.8808 323.34C76.0159 323.82 76.2185 324.256 76.4887 324.646C76.7589 325.036 77.1042 325.351 77.5245 325.592C77.9448 325.832 78.4401 325.952 79.0105 325.952ZM97.7237 327.978C95.8473 327.978 94.3988 327.355 93.378 326.109C92.3573 324.864 91.8469 323.055 91.8469 320.683C91.8469 320.143 91.8694 319.587 91.9145 319.017C91.9745 318.446 92.0571 317.891 92.1622 317.351C92.2822 316.81 92.4324 316.292 92.6125 315.797C92.8076 315.287 93.0478 314.829 93.333 314.424C93.8734 313.613 94.5339 313.02 95.3144 312.645C96.11 312.254 97.1007 312.029 98.2866 311.969C98.7819 311.954 99.1797 311.932 99.48 311.902C99.7802 311.872 100.013 311.834 100.178 311.789C100.358 311.729 100.486 311.654 100.561 311.564C100.636 311.474 100.688 311.354 100.718 311.204H103.128C103.098 311.789 103.008 312.277 102.857 312.667C102.722 313.043 102.497 313.35 102.182 313.59C101.882 313.816 101.484 313.988 100.989 314.108C100.493 314.213 99.8852 314.288 99.1647 314.333C98.2641 314.393 97.506 314.521 96.8906 314.716C96.2751 314.911 95.7723 315.167 95.382 315.482C94.9917 315.797 94.6915 316.172 94.4813 316.608C94.2712 317.043 94.1286 317.516 94.0535 318.026H94.0986C94.5189 317.396 95.0893 316.9 95.8098 316.54C96.5303 316.165 97.4085 315.977 98.4442 315.977C99.1947 315.977 99.8852 316.12 100.516 316.405C101.146 316.675 101.687 317.065 102.137 317.576C102.602 318.086 102.962 318.702 103.218 319.422C103.473 320.143 103.6 320.946 103.6 321.831C103.6 322.732 103.465 323.558 103.195 324.308C102.94 325.059 102.557 325.704 102.047 326.245C101.551 326.785 100.936 327.213 100.2 327.528C99.48 327.828 98.6544 327.978 97.7237 327.978ZM97.7237 325.952C98.2941 325.952 98.7895 325.832 99.2098 325.592C99.6301 325.351 99.9753 325.036 100.246 324.646C100.516 324.256 100.711 323.82 100.831 323.34C100.966 322.845 101.034 322.342 101.034 321.831C101.034 321.336 100.966 320.856 100.831 320.39C100.711 319.925 100.516 319.52 100.246 319.174C99.9753 318.814 99.6301 318.529 99.2098 318.319C98.7895 318.109 98.2941 318.004 97.7237 318.004C97.1533 318.004 96.6579 318.109 96.2376 318.319C95.8173 318.529 95.4721 318.814 95.2019 319.174C94.9317 319.52 94.729 319.925 94.5939 320.39C94.4738 320.856 94.4138 321.336 94.4138 321.831C94.4138 322.342 94.4738 322.845 94.5939 323.34C94.729 323.82 94.9317 324.256 95.2019 324.646C95.4721 325.036 95.8173 325.351 96.2376 325.592C96.6579 325.832 97.1533 325.952 97.7237 325.952ZM110.62 327.978C109.69 327.978 108.857 327.828 108.121 327.528C107.401 327.213 106.785 326.785 106.275 326.245C105.779 325.704 105.397 325.059 105.126 324.308C104.871 323.558 104.744 322.732 104.744 321.831C104.744 320.946 104.871 320.128 105.126 319.377C105.397 318.627 105.779 317.981 106.275 317.441C106.785 316.9 107.401 316.48 108.121 316.18C108.857 315.865 109.69 315.707 110.62 315.707C111.551 315.707 112.377 315.865 113.097 316.18C113.833 316.48 114.448 316.9 114.944 317.441C115.454 317.981 115.837 318.627 116.092 319.377C116.362 320.128 116.497 320.946 116.497 321.831C116.497 322.732 116.362 323.558 116.092 324.308C115.837 325.059 115.454 325.704 114.944 326.245C114.448 326.785 113.833 327.213 113.097 327.528C112.377 327.828 111.551 327.978 110.62 327.978ZM110.62 325.952C111.191 325.952 111.686 325.832 112.106 325.592C112.527 325.351 112.872 325.036 113.142 324.646C113.412 324.256 113.608 323.82 113.728 323.34C113.863 322.845 113.93 322.342 113.93 321.831C113.93 321.336 113.863 320.841 113.728 320.345C113.608 319.85 113.412 319.415 113.142 319.039C112.872 318.649 112.527 318.334 112.106 318.094C111.686 317.853 111.191 317.733 110.62 317.733C110.05 317.733 109.555 317.853 109.134 318.094C108.714 318.334 108.369 318.649 108.099 319.039C107.828 319.415 107.626 319.85 107.491 320.345C107.371 320.841 107.311 321.336 107.311 321.831C107.311 322.342 107.371 322.845 107.491 323.34C107.626 323.82 107.828 324.256 108.099 324.646C108.369 325.036 108.714 325.351 109.134 325.592C109.555 325.832 110.05 325.952 110.62 325.952ZM117.821 325.817C118.211 325.817 118.579 325.682 118.924 325.411C119.284 325.141 119.539 324.751 119.689 324.241C119.779 323.955 119.847 323.678 119.892 323.408C119.952 323.122 119.997 322.822 120.027 322.507C120.072 322.192 120.102 321.839 120.117 321.449C120.132 321.058 120.147 320.608 120.162 320.098C120.177 319.587 120.185 319.009 120.185 318.364C120.2 317.703 120.207 316.923 120.207 316.022H129.867V327.663H127.3V317.936H122.819C122.819 318.912 122.804 319.775 122.774 320.525C122.759 321.261 122.729 321.914 122.684 322.484C122.654 323.055 122.609 323.558 122.549 323.993C122.489 324.413 122.406 324.789 122.301 325.119C122.196 325.494 122.061 325.847 121.896 326.177C121.746 326.492 121.513 326.77 121.198 327.01C120.898 327.235 120.485 327.415 119.96 327.551C119.449 327.686 118.774 327.753 117.933 327.753C117.693 327.753 117.49 327.746 117.325 327.731C117.16 327.731 116.995 327.716 116.83 327.686V325.749C116.995 325.779 117.138 325.802 117.258 325.817C117.393 325.817 117.58 325.817 117.821 325.817ZM132.266 316.022H134.833V324.015H134.878L139.99 316.022H143.164V327.663H140.597V319.602H140.552L135.329 327.663H132.266V316.022Z" fill="#E20000"/>
<rect x="6.92603" y="424.759" width="186.691" height="0.649821" fill="#E20000"/>
<rect x="6.92603" y="212.918" width="186.691" height="0.649821" fill="#E20000"/>
<rect x="193.627" y="222.675" width="0.649821" height="192.997" fill="#E20000"/>
<path d="M86.6462 517.035C86.5261 516.569 86.361 516.141 86.1509 515.751C85.9407 515.361 85.6705 515.023 85.3403 514.738C85.01 514.453 84.6198 514.235 84.1694 514.085C83.7341 513.92 83.2238 513.837 82.6383 513.837C81.7827 513.837 81.0397 514.01 80.4092 514.355C79.7938 514.7 79.2909 515.166 78.9006 515.751C78.5103 516.322 78.2176 516.975 78.0225 517.71C77.8424 518.446 77.7523 519.196 77.7523 519.962C77.7523 520.727 77.8424 521.478 78.0225 522.213C78.2176 522.949 78.5103 523.609 78.9006 524.195C79.2909 524.765 79.7938 525.223 80.4092 525.568C81.0397 525.913 81.7827 526.086 82.6383 526.086C83.2688 526.086 83.8242 525.981 84.3045 525.771C84.7849 525.546 85.1977 525.246 85.5429 524.87C85.8882 524.48 86.1584 524.03 86.3535 523.519C86.5487 523.009 86.6763 522.461 86.7363 521.876H89.4833C89.4232 522.836 89.2131 523.714 88.8528 524.51C88.5076 525.306 88.0347 525.996 87.4343 526.581C86.8339 527.152 86.1284 527.595 85.3178 527.91C84.5072 528.225 83.614 528.383 82.6383 528.383C81.4375 528.383 80.3567 528.165 79.396 527.73C78.4503 527.279 77.6472 526.672 76.9867 525.906C76.3263 525.14 75.8159 524.247 75.4556 523.227C75.1104 522.206 74.9378 521.118 74.9378 519.962C74.9378 518.821 75.1104 517.74 75.4556 516.719C75.8159 515.699 76.3263 514.805 76.9867 514.04C77.6472 513.274 78.4503 512.666 79.396 512.216C80.3567 511.766 81.4375 511.541 82.6383 511.541C83.539 511.541 84.3871 511.668 85.1827 511.923C85.9782 512.164 86.6763 512.524 87.2767 513.004C87.8921 513.469 88.3875 514.04 88.7628 514.715C89.138 515.391 89.3707 516.164 89.4608 517.035H86.6462ZM100.487 518.273H96.6362V528H94.0694V518.273H90.0615V516.359H100.487V518.273ZM101.69 516.359H104.122V517.935H104.167C104.527 517.26 105.03 516.779 105.675 516.494C106.321 516.194 107.019 516.044 107.769 516.044C108.685 516.044 109.481 516.209 110.156 516.539C110.847 516.854 111.417 517.297 111.867 517.868C112.318 518.423 112.655 519.076 112.881 519.827C113.106 520.577 113.218 521.38 113.218 522.236C113.218 523.016 113.113 523.774 112.903 524.51C112.708 525.246 112.4 525.898 111.98 526.469C111.575 527.024 111.057 527.475 110.426 527.82C109.796 528.15 109.053 528.315 108.197 528.315C107.822 528.315 107.447 528.278 107.071 528.203C106.696 528.143 106.336 528.038 105.991 527.887C105.645 527.737 105.323 527.55 105.022 527.325C104.737 527.084 104.497 526.807 104.302 526.491H104.257V532.301H101.69V516.359ZM110.651 522.191C110.651 521.665 110.584 521.155 110.449 520.66C110.314 520.164 110.111 519.729 109.841 519.354C109.571 518.963 109.233 518.656 108.828 518.431C108.422 518.19 107.957 518.07 107.432 518.07C106.351 518.07 105.533 518.446 104.977 519.196C104.437 519.947 104.167 520.945 104.167 522.191C104.167 522.776 104.234 523.324 104.369 523.834C104.519 524.33 104.737 524.758 105.022 525.118C105.308 525.478 105.645 525.763 106.036 525.974C106.441 526.184 106.906 526.289 107.432 526.289C108.017 526.289 108.512 526.169 108.918 525.929C109.323 525.688 109.653 525.381 109.908 525.005C110.179 524.615 110.366 524.18 110.471 523.699C110.591 523.204 110.651 522.701 110.651 522.191ZM124.686 525.411C124.686 525.726 124.724 525.951 124.799 526.086C124.889 526.221 125.054 526.289 125.294 526.289H125.565C125.67 526.289 125.79 526.274 125.925 526.244V528.023C125.835 528.053 125.715 528.083 125.565 528.113C125.429 528.158 125.287 528.195 125.137 528.225C124.987 528.255 124.837 528.278 124.686 528.293C124.536 528.308 124.409 528.315 124.304 528.315C123.778 528.315 123.343 528.21 122.998 528C122.652 527.79 122.427 527.422 122.322 526.897C121.812 527.392 121.181 527.752 120.431 527.977C119.695 528.203 118.982 528.315 118.292 528.315C117.766 528.315 117.264 528.24 116.783 528.09C116.303 527.955 115.875 527.752 115.5 527.482C115.14 527.197 114.847 526.844 114.622 526.424C114.412 525.989 114.306 525.486 114.306 524.915C114.306 524.195 114.434 523.609 114.689 523.159C114.959 522.709 115.305 522.356 115.725 522.101C116.16 521.846 116.641 521.665 117.166 521.56C117.706 521.44 118.247 521.35 118.787 521.29C119.253 521.2 119.695 521.14 120.116 521.11C120.536 521.065 120.904 520.997 121.219 520.907C121.549 520.817 121.804 520.682 121.984 520.502C122.18 520.307 122.277 520.022 122.277 519.646C122.277 519.316 122.195 519.046 122.03 518.836C121.879 518.626 121.684 518.468 121.444 518.363C121.219 518.243 120.964 518.168 120.679 518.138C120.393 518.093 120.123 518.07 119.868 518.07C119.147 518.07 118.554 518.22 118.089 518.521C117.624 518.821 117.361 519.286 117.301 519.917H114.734C114.779 519.166 114.959 518.543 115.275 518.048C115.59 517.552 115.988 517.155 116.468 516.854C116.963 516.554 117.519 516.344 118.134 516.224C118.75 516.104 119.38 516.044 120.026 516.044C120.596 516.044 121.159 516.104 121.714 516.224C122.27 516.344 122.765 516.539 123.2 516.809C123.651 517.08 124.011 517.432 124.281 517.868C124.551 518.288 124.686 518.806 124.686 519.421V525.411ZM122.12 522.168C121.729 522.423 121.249 522.581 120.679 522.641C120.108 522.686 119.538 522.761 118.967 522.866C118.697 522.911 118.434 522.979 118.179 523.069C117.924 523.144 117.699 523.257 117.504 523.407C117.309 523.542 117.151 523.729 117.031 523.97C116.926 524.195 116.873 524.472 116.873 524.803C116.873 525.088 116.956 525.328 117.121 525.523C117.286 525.718 117.481 525.876 117.706 525.996C117.947 526.101 118.202 526.176 118.472 526.221C118.757 526.266 119.012 526.289 119.237 526.289C119.523 526.289 119.83 526.251 120.161 526.176C120.491 526.101 120.799 525.974 121.084 525.793C121.384 525.613 121.632 525.388 121.827 525.118C122.022 524.833 122.12 524.487 122.12 524.082V522.168ZM130.128 521.876L126.097 516.359H129.205L131.636 519.939L134.181 516.359H137.153L133.19 521.74L137.648 528H134.564L131.614 523.699L128.754 528H125.737L130.128 521.876ZM43.0195 552.315C42.0889 552.315 41.2558 552.165 40.5202 551.865C39.7997 551.55 39.1843 551.122 38.6739 550.581C38.1785 550.041 37.7957 549.396 37.5256 548.645C37.2704 547.895 37.1428 547.069 37.1428 546.168C37.1428 545.283 37.2704 544.465 37.5256 543.714C37.7957 542.963 38.1785 542.318 38.6739 541.778C39.1843 541.237 39.7997 540.817 40.5202 540.517C41.2558 540.201 42.0889 540.044 43.0195 540.044C43.9502 540.044 44.7758 540.201 45.4963 540.517C46.2319 540.817 46.8473 541.237 47.3427 541.778C47.853 542.318 48.2358 542.963 48.491 543.714C48.7612 544.465 48.8963 545.283 48.8963 546.168C48.8963 547.069 48.7612 547.895 48.491 548.645C48.2358 549.396 47.853 550.041 47.3427 550.581C46.8473 551.122 46.2319 551.55 45.4963 551.865C44.7758 552.165 43.9502 552.315 43.0195 552.315ZM43.0195 550.289C43.5899 550.289 44.0853 550.169 44.5056 549.929C44.9259 549.688 45.2712 549.373 45.5414 548.983C45.8115 548.593 46.0067 548.157 46.1268 547.677C46.2619 547.182 46.3294 546.679 46.3294 546.168C46.3294 545.673 46.2619 545.178 46.1268 544.682C46.0067 544.187 45.8115 543.752 45.5414 543.376C45.2712 542.986 44.9259 542.671 44.5056 542.431C44.0853 542.19 43.5899 542.07 43.0195 542.07C42.4491 542.07 41.9538 542.19 41.5335 542.431C41.1131 542.671 40.7679 542.986 40.4977 543.376C40.2275 543.752 40.0249 544.187 39.8898 544.682C39.7697 545.178 39.7096 545.673 39.7096 546.168C39.7096 546.679 39.7697 547.182 39.8898 547.677C40.0249 548.157 40.2275 548.593 40.4977 548.983C40.7679 549.373 41.1131 549.688 41.5335 549.929C41.9538 550.169 42.4491 550.289 43.0195 550.289ZM51.8183 555.535H49.4541V550.086H50.9176C51.1428 550.026 51.353 549.913 51.5481 549.748C51.9084 549.478 52.1635 549.088 52.3137 548.578C52.4037 548.292 52.4713 548.015 52.5163 547.744C52.5763 547.459 52.6214 547.159 52.6514 546.844C52.6964 546.529 52.7264 546.176 52.7415 545.786C52.7565 545.395 52.7715 544.945 52.7865 544.435C52.8015 543.924 52.809 543.346 52.809 542.701C52.824 542.04 52.8315 541.26 52.8315 540.359H62.491V550.086H64.5625V555.535H62.1983V552H51.8183V555.535ZM59.9242 542.273H55.4209C55.4209 543.249 55.4134 544.112 55.3984 544.862C55.3834 545.598 55.3533 546.251 55.3083 546.821C55.2783 547.392 55.2333 547.895 55.1732 548.33C55.1132 548.75 55.0306 549.125 54.9255 549.456C54.8655 549.681 54.7979 549.891 54.7229 550.086H59.9242V542.273ZM65.765 540.359H68.3319V548.352H68.3769L73.4881 540.359H76.6629V552H74.096V543.939H74.051L68.8272 552H65.765V540.359ZM79.0795 540.359H81.6464V545.178H87.4331V540.359H89.9999V552H87.4331V547.091H81.6464V552H79.0795V540.359ZM97.6628 552.315C96.7322 552.315 95.8991 552.165 95.1635 551.865C94.443 551.55 93.8276 551.122 93.3172 550.581C92.8218 550.041 92.4391 549.396 92.1689 548.645C91.9137 547.895 91.7861 547.069 91.7861 546.168C91.7861 545.283 91.9137 544.465 92.1689 543.714C92.4391 542.963 92.8218 542.318 93.3172 541.778C93.8276 541.237 94.443 540.817 95.1635 540.517C95.8991 540.201 96.7322 540.044 97.6628 540.044C98.5935 540.044 99.4191 540.201 100.14 540.517C100.875 540.817 101.491 541.237 101.986 541.778C102.496 542.318 102.879 542.963 103.134 543.714C103.404 544.465 103.54 545.283 103.54 546.168C103.54 547.069 103.404 547.895 103.134 548.645C102.879 549.396 102.496 550.041 101.986 550.581C101.491 551.122 100.875 551.55 100.14 551.865C99.4191 552.165 98.5935 552.315 97.6628 552.315ZM97.6628 550.289C98.2333 550.289 98.7286 550.169 99.1489 549.929C99.5692 549.688 99.9145 549.373 100.185 548.983C100.455 548.593 100.65 548.157 100.77 547.677C100.905 547.182 100.973 546.679 100.973 546.168C100.973 545.673 100.905 545.178 100.77 544.682C100.65 544.187 100.455 543.752 100.185 543.376C99.9145 542.986 99.5692 542.671 99.1489 542.431C98.7286 542.19 98.2333 542.07 97.6628 542.07C97.0924 542.07 96.5971 542.19 96.1768 542.431C95.7565 542.671 95.4112 542.986 95.141 543.376C94.8708 543.752 94.6682 544.187 94.5331 544.682C94.413 545.178 94.353 545.673 94.353 546.168C94.353 546.679 94.413 547.182 94.5331 547.677C94.6682 548.157 94.8708 548.593 95.141 548.983C95.4112 549.373 95.7565 549.688 96.1768 549.929C96.5971 550.169 97.0924 550.289 97.6628 550.289ZM115.22 552H112.654V547.564C112.308 547.699 111.881 547.834 111.37 547.97C110.86 548.105 110.267 548.172 109.591 548.172C108.075 548.172 106.927 547.842 106.146 547.182C105.381 546.521 104.998 545.53 104.998 544.209V540.359H107.565V543.534C107.565 544.45 107.76 545.118 108.15 545.538C108.541 545.943 109.179 546.146 110.064 546.146C110.545 546.146 111.032 546.086 111.528 545.966C112.023 545.831 112.398 545.71 112.654 545.605V540.359H115.22V552ZM125.476 545.155C125.446 544.75 125.355 544.359 125.205 543.984C125.07 543.609 124.875 543.286 124.62 543.016C124.38 542.731 124.08 542.506 123.719 542.341C123.374 542.16 122.984 542.07 122.548 542.07C122.098 542.07 121.685 542.153 121.31 542.318C120.95 542.468 120.635 542.686 120.364 542.971C120.109 543.241 119.899 543.564 119.734 543.939C119.584 544.314 119.501 544.72 119.486 545.155H125.476ZM119.486 546.844C119.486 547.294 119.546 547.729 119.666 548.15C119.801 548.57 119.997 548.938 120.252 549.253C120.507 549.568 120.83 549.823 121.22 550.019C121.61 550.199 122.076 550.289 122.616 550.289C123.367 550.289 123.967 550.131 124.417 549.816C124.883 549.486 125.228 548.998 125.453 548.352H127.885C127.75 548.983 127.517 549.546 127.187 550.041C126.857 550.536 126.459 550.957 125.993 551.302C125.528 551.632 125.003 551.88 124.417 552.045C123.847 552.225 123.246 552.315 122.616 552.315C121.7 552.315 120.89 552.165 120.184 551.865C119.479 551.565 118.878 551.144 118.383 550.604C117.903 550.064 117.535 549.418 117.28 548.668C117.039 547.917 116.919 547.091 116.919 546.191C116.919 545.365 117.047 544.585 117.302 543.849C117.572 543.099 117.948 542.446 118.428 541.89C118.923 541.32 119.516 540.869 120.207 540.539C120.897 540.209 121.678 540.044 122.548 540.044C123.464 540.044 124.282 540.239 125.003 540.629C125.738 541.005 126.346 541.507 126.827 542.138C127.307 542.768 127.652 543.496 127.862 544.322C128.087 545.133 128.147 545.973 128.042 546.844H119.486ZM137.402 544.254C137.297 543.534 137.004 542.993 136.523 542.633C136.058 542.258 135.465 542.07 134.745 542.07C134.414 542.07 134.062 542.13 133.686 542.25C133.311 542.356 132.966 542.566 132.651 542.881C132.335 543.181 132.073 543.609 131.863 544.164C131.652 544.705 131.547 545.418 131.547 546.303C131.547 546.784 131.6 547.264 131.705 547.744C131.825 548.225 132.005 548.653 132.245 549.028C132.501 549.403 132.823 549.711 133.214 549.951C133.604 550.176 134.077 550.289 134.632 550.289C135.383 550.289 135.998 550.056 136.478 549.591C136.974 549.125 137.282 548.472 137.402 547.632H139.968C139.728 549.148 139.15 550.311 138.235 551.122C137.334 551.917 136.133 552.315 134.632 552.315C133.716 552.315 132.906 552.165 132.2 551.865C131.51 551.55 130.924 551.129 130.444 550.604C129.964 550.064 129.596 549.426 129.341 548.69C129.101 547.955 128.981 547.159 128.981 546.303C128.981 545.433 129.101 544.615 129.341 543.849C129.581 543.084 129.941 542.423 130.422 541.868C130.902 541.297 131.495 540.854 132.2 540.539C132.921 540.209 133.761 540.044 134.722 540.044C135.398 540.044 136.036 540.134 136.636 540.314C137.252 540.479 137.792 540.734 138.257 541.08C138.738 541.425 139.128 541.86 139.428 542.386C139.728 542.911 139.908 543.534 139.968 544.254H137.402ZM150.859 542.273H147.009V552H144.442V542.273H140.434V540.359H150.859V542.273ZM154.629 545.11H157.376C157.871 545.11 158.277 544.99 158.592 544.75C158.922 544.495 159.087 544.142 159.087 543.691C159.087 543.166 158.937 542.798 158.637 542.588C158.352 542.378 157.931 542.273 157.376 542.273H154.629V545.11ZM152.062 540.359H158.187C159.237 540.359 160.078 540.599 160.708 541.08C161.339 541.545 161.654 542.265 161.654 543.241C161.654 543.827 161.504 544.329 161.204 544.75C160.919 545.17 160.513 545.493 159.988 545.718V545.763C160.708 545.913 161.249 546.251 161.609 546.776C161.984 547.302 162.172 547.962 162.172 548.758C162.172 549.208 162.089 549.636 161.924 550.041C161.759 550.431 161.504 550.777 161.159 551.077C160.814 551.362 160.371 551.587 159.83 551.752C159.29 551.917 158.644 552 157.894 552H152.062V540.359ZM154.629 550.086H157.669C158.299 550.086 158.78 549.944 159.11 549.658C159.44 549.358 159.605 548.945 159.605 548.42C159.605 547.895 159.44 547.497 159.11 547.227C158.78 546.941 158.299 546.799 157.669 546.799H154.629V550.086ZM173.629 549.411C173.629 549.726 173.667 549.951 173.742 550.086C173.832 550.221 173.997 550.289 174.237 550.289H174.508C174.613 550.289 174.733 550.274 174.868 550.244V552.023C174.778 552.053 174.658 552.083 174.508 552.113C174.372 552.158 174.23 552.195 174.08 552.225C173.93 552.255 173.78 552.278 173.629 552.293C173.479 552.308 173.352 552.315 173.247 552.315C172.721 552.315 172.286 552.21 171.941 552C171.595 551.79 171.37 551.422 171.265 550.897C170.755 551.392 170.124 551.752 169.374 551.977C168.638 552.203 167.925 552.315 167.235 552.315C166.709 552.315 166.207 552.24 165.726 552.09C165.246 551.955 164.818 551.752 164.443 551.482C164.083 551.197 163.79 550.844 163.565 550.424C163.354 549.989 163.249 549.486 163.249 548.915C163.249 548.195 163.377 547.609 163.632 547.159C163.902 546.709 164.248 546.356 164.668 546.101C165.103 545.846 165.584 545.665 166.109 545.56C166.649 545.44 167.19 545.35 167.73 545.29C168.195 545.2 168.638 545.14 169.059 545.11C169.479 545.065 169.847 544.997 170.162 544.907C170.492 544.817 170.747 544.682 170.927 544.502C171.123 544.307 171.22 544.022 171.22 543.646C171.22 543.316 171.138 543.046 170.973 542.836C170.822 542.626 170.627 542.468 170.387 542.363C170.162 542.243 169.907 542.168 169.622 542.138C169.336 542.093 169.066 542.07 168.811 542.07C168.09 542.07 167.497 542.22 167.032 542.521C166.567 542.821 166.304 543.286 166.244 543.917H163.677C163.722 543.166 163.902 542.543 164.218 542.048C164.533 541.552 164.931 541.155 165.411 540.854C165.906 540.554 166.462 540.344 167.077 540.224C167.693 540.104 168.323 540.044 168.969 540.044C169.539 540.044 170.102 540.104 170.657 540.224C171.213 540.344 171.708 540.539 172.143 540.809C172.594 541.08 172.954 541.432 173.224 541.868C173.494 542.288 173.629 542.806 173.629 543.421V549.411ZM171.063 546.168C170.672 546.423 170.192 546.581 169.622 546.641C169.051 546.686 168.481 546.761 167.91 546.866C167.64 546.911 167.377 546.979 167.122 547.069C166.867 547.144 166.642 547.257 166.447 547.407C166.252 547.542 166.094 547.729 165.974 547.97C165.869 548.195 165.816 548.472 165.816 548.803C165.816 549.088 165.899 549.328 166.064 549.523C166.229 549.718 166.424 549.876 166.649 549.996C166.89 550.101 167.145 550.176 167.415 550.221C167.7 550.266 167.955 550.289 168.18 550.289C168.466 550.289 168.773 550.251 169.104 550.176C169.434 550.101 169.742 549.974 170.027 549.793C170.327 549.613 170.575 549.388 170.77 549.118C170.965 548.833 171.063 548.487 171.063 548.082V546.168Z" fill="#E20000"/>
<rect x="193.627" y="435.654" width="0.649821" height="192.875" fill="#E20000"/>
</svg>
